<svg width="118" height="35" viewBox="0 0 118 35" fill="none" xmlns="http://www.w3.org/2000/svg">
<g clip-path="url(#clip0_35_307)">
<path fill-rule="evenodd" clip-rule="evenodd" d="M54.9625 11.4574H50.8414V26.4897C50.8414 26.7745 50.6119 27.0062 50.3324 27.0062H46.9995C46.72 27.0062 46.491 26.7745 46.491 26.4897V11.4574H42.3445C42.0637 11.4574 41.8355 11.251 41.8355 10.9661V8.30569C41.8355 8.02169 42.0637 7.81506 42.3445 7.81506H54.9625C55.2422 7.81506 55.4968 8.02169 55.4968 8.30569V10.9661C55.4968 11.251 55.2422 11.4574 54.9625 11.4574ZM64.0433 27.2394C59.8459 27.2394 56.5131 24.9407 56.5131 18.9481V15.8739C56.5131 9.88061 59.8459 7.58262 64.0433 7.58262C68.2417 7.58262 71.5734 9.88061 71.5734 15.8739V18.9481C71.5734 24.9407 68.2417 27.2394 64.0433 27.2394ZM67.1977 15.8739C67.1977 12.7745 66.1812 11.4573 64.0433 11.4573C61.9076 11.4573 60.9148 12.7745 60.9148 15.8739V18.9481C60.9148 22.0471 61.9076 23.364 64.0433 23.364C66.1812 23.364 67.1977 22.0471 67.1977 18.9481V15.8739ZM85.6671 11.4574H81.546V26.4897C81.546 26.7745 81.3176 27.0062 81.037 27.0062H77.7041C77.4246 27.0062 77.1964 26.7745 77.1964 26.4897V11.4574H73.0491C72.7696 11.4574 72.5388 11.251 72.5388 10.9661V8.30569C72.5388 8.02169 72.7696 7.81506 73.0491 7.81506H85.6671C85.9464 7.81506 86.201 8.02169 86.201 8.30569V10.9661C86.201 11.251 85.9464 11.4574 85.6671 11.4574ZM103.553 8.35761L99.762 24.3709C99.177 26.8517 97.3199 27.2393 95.5636 27.2393C93.8086 27.2393 91.9263 26.8517 91.3401 24.3709L87.5493 8.35761C87.5493 8.30574 87.5244 8.28002 87.5244 8.22793C87.5244 7.99579 87.7277 7.8151 87.9821 7.8151H91.5197C91.7728 7.8151 91.9761 8.02151 92.0272 8.28002L95.2068 23.1843C95.2592 23.4679 95.3341 23.5705 95.5636 23.5705C95.7931 23.5705 95.8691 23.4679 95.9202 23.1843L99.101 8.28002C99.1508 8.02151 99.3292 7.8151 99.5836 7.8151H103.145C103.399 7.8151 103.578 7.96964 103.578 8.22793C103.578 8.25451 103.553 8.30574 103.553 8.35761ZM110.726 27.2394C108.717 27.2394 107.215 27.0064 105.918 26.6707C105.663 26.5935 105.409 26.4377 105.409 26.1541V23.6225C105.409 23.2615 105.612 23.1323 105.867 23.1323H105.944C106.985 23.2358 109.784 23.4418 110.776 23.4418C112.532 23.4418 113.04 22.8736 113.04 21.634C113.04 20.8845 112.683 20.4716 111.362 19.671L107.851 17.5533C105.485 16.1322 104.85 14.5053 104.85 12.6195C104.85 9.77816 106.425 7.58262 111.362 7.58262C113.218 7.58262 115.788 7.89278 116.755 8.15085C116.957 8.20229 117.136 8.33154 117.136 8.61598V11.2248C117.136 11.4573 117.034 11.6638 116.703 11.6638H116.654C115.941 11.6123 112.989 11.3793 111.26 11.3793C109.809 11.3793 109.276 11.8187 109.276 12.7479C109.276 13.4715 109.606 13.8074 110.979 14.5563L114.235 16.3386C116.882 17.7855 117.67 19.4899 117.67 21.5821C117.67 24.3202 115.89 27.2394 110.726 27.2394ZM17.2358 0C26.7564 0 34.4725 7.83589 34.4725 17.5005C34.4725 27.165 26.7564 35 17.2358 35C7.71689 35 0 27.165 0 17.5005C0 7.83589 7.71689 0 17.2358 0ZM28.8552 23.9808C29.7059 23.1854 29.7084 11.0855 28.8552 9.84988C27.7568 8.89757 13.3865 5.2083 12.2904 5.59627C11.8968 5.96457 11.686 8.75016 11.656 11.7605C8.63164 11.0365 6.02429 10.5283 5.5815 10.684C4.73083 11.4815 4.73083 23.5831 5.57979 24.814C6.67655 25.767 21.0493 29.4582 22.1461 29.0694C22.5391 28.7009 22.7511 25.9155 22.7811 22.9055C25.8047 23.6292 28.412 24.1379 28.8552 23.9808ZM22.1462 14.9389C22.6052 15.602 22.816 19.4065 22.7811 22.9055C18.3161 21.8354 12.9421 20.2942 12.2884 19.7255C11.8324 19.0632 11.6217 15.2604 11.656 11.7605C16.1201 12.8297 21.4914 14.3707 22.1462 14.9389Z" fill="#4A5C60"/>
</g>
<defs>
<clipPath id="clip0_35_307">
<rect width="118" height="35" fill="white"/>
</clipPath>
</defs>
</svg>
